<svg preserveAspectRatio="none" width="100%" height="100%" overflow="visible" style="display: block;" viewBox="0 0 31.9867 31.9867" fill="none" xmlns="http://www.w3.org/2000/svg">
<g id="Icon">
<path id="Vector" d="M26.6556 17.3261C26.6556 23.99 21.9908 27.3219 16.4465 29.2544C16.1562 29.3528 15.8408 29.3481 15.5535 29.2411C9.99584 27.3219 5.33111 23.99 5.33111 17.3261V7.99662C5.33111 7.64314 5.47153 7.30415 5.72147 7.0542C5.97142 6.80426 6.31042 6.66384 6.66389 6.66384C9.32945 6.66384 12.6614 5.06451 14.9804 3.03868C15.2628 2.79745 15.622 2.66491 15.9933 2.66491C16.3647 2.66491 16.7239 2.79745 17.0062 3.03868C19.3386 5.07783 22.6572 6.66384 25.3228 6.66384C25.6763 6.66384 26.0153 6.80426 26.2652 7.0542C26.5151 7.30415 26.6556 7.64314 26.6556 7.99662V17.3261Z" stroke="var(--stroke-0, white)" stroke-width="2.66556" stroke-linecap="round" stroke-linejoin="round"/>
</g>
</svg>
