<svg preserveAspectRatio="none" width="100%" height="100%" overflow="visible" style="display: block;" viewBox="0 0 31.9867 31.9867" fill="none" xmlns="http://www.w3.org/2000/svg">
<g id="Icon">
<path id="Vector" d="M13.2438 20.6581C13.1248 20.1968 12.8844 19.7759 12.5476 19.4391C12.2108 19.1023 11.7899 18.8619 11.3286 18.7429L3.15202 16.6344C3.01252 16.5948 2.88974 16.5108 2.80232 16.3951C2.71489 16.2794 2.66759 16.1384 2.66759 15.9933C2.66759 15.8483 2.71489 15.7073 2.80232 15.5916C2.88974 15.4759 3.01252 15.3919 3.15202 15.3523L11.3286 13.2425C11.7897 13.1236 12.2105 12.8834 12.5473 12.5468C12.8841 12.2103 13.1246 11.7896 13.2438 11.3286L15.3523 3.15203C15.3915 3.01198 15.4754 2.88859 15.5913 2.8007C15.7071 2.71281 15.8486 2.66523 15.994 2.66523C16.1394 2.66523 16.2809 2.71281 16.3967 2.8007C16.5126 2.88859 16.5965 3.01198 16.6357 3.15203L18.7429 11.3286C18.8618 11.7899 19.1023 12.2108 19.4391 12.5476C19.7759 12.8844 20.1968 13.1248 20.6581 13.2438L28.8347 15.3509C28.9753 15.3897 29.0993 15.4736 29.1876 15.5896C29.276 15.7057 29.3239 15.8475 29.3239 15.9933C29.3239 16.1392 29.276 16.281 29.1876 16.3971C29.0993 16.5131 28.9753 16.597 28.8347 16.6357L20.6581 18.7429C20.1968 18.8619 19.7759 19.1023 19.4391 19.4391C19.1023 19.7759 18.8618 20.1968 18.7429 20.6581L16.6344 28.8347C16.5952 28.9747 16.5113 29.0981 16.3954 29.186C16.2795 29.2739 16.1381 29.3215 15.9927 29.3215C15.8472 29.3215 15.7058 29.2739 15.5899 29.186C15.4741 29.0981 15.3901 28.9747 15.3509 28.8347L13.2438 20.6581Z" stroke="var(--stroke-0, white)" stroke-width="2.66556" stroke-linecap="round" stroke-linejoin="round"/>
<path id="Vector_2" d="M26.6556 3.99833V9.32945" stroke="var(--stroke-0, white)" stroke-width="2.66556" stroke-linecap="round" stroke-linejoin="round"/>
<path id="Vector_3" d="M29.3211 6.66389H23.99" stroke="var(--stroke-0, white)" stroke-width="2.66556" stroke-linecap="round" stroke-linejoin="round"/>
<path id="Vector_4" d="M5.33111 22.6572V25.3228" stroke="var(--stroke-0, white)" stroke-width="2.66556" stroke-linecap="round" stroke-linejoin="round"/>
<path id="Vector_5" d="M6.66389 23.99H3.99833" stroke="var(--stroke-0, white)" stroke-width="2.66556" stroke-linecap="round" stroke-linejoin="round"/>
</g>
</svg>
