<svg preserveAspectRatio="none" width="100%" height="100%" overflow="visible" style="display: block;" viewBox="0 0 31.9867 31.9867" fill="none" xmlns="http://www.w3.org/2000/svg">
<g id="Icon">
<path id="Vector" d="M5.3311 18.6589C5.07889 18.6598 4.83162 18.5891 4.618 18.455C4.40439 18.3209 4.2332 18.129 4.12434 17.9015C4.01547 17.674 3.97339 17.4202 4.00299 17.1698C4.03258 16.9193 4.13264 16.6824 4.29154 16.4865L17.486 2.89218C17.585 2.77794 17.7199 2.70074 17.8685 2.67325C18.0172 2.64576 18.1707 2.66963 18.304 2.74092C18.4373 2.81221 18.5424 2.9267 18.602 3.06559C18.6617 3.20448 18.6723 3.35952 18.6322 3.50526L16.0733 11.5286C15.9978 11.7305 15.9725 11.9478 15.9994 12.1617C16.0264 12.3756 16.1048 12.5797 16.228 12.7566C16.3512 12.9336 16.5155 13.078 16.7067 13.1774C16.898 13.2769 17.1105 13.3285 17.3261 13.3278H26.6556C26.9078 13.327 27.155 13.3977 27.3687 13.5318C27.5823 13.6659 27.7535 13.8578 27.8623 14.0853C27.9712 14.3128 28.0133 14.5665 27.9837 14.817C27.9541 15.0675 27.854 15.3044 27.6951 15.5003L14.5006 29.0946C14.4016 29.2088 14.2668 29.286 14.1181 29.3135C13.9695 29.341 13.8159 29.3172 13.6827 29.2459C13.5494 29.1746 13.4443 29.0601 13.3846 28.9212C13.325 28.7823 13.3143 28.6273 13.3544 28.4815L15.9134 20.4582C15.9888 20.2563 16.0142 20.039 15.9872 19.8251C15.9603 19.6112 15.8818 19.4071 15.7586 19.2301C15.6354 19.0532 15.4712 18.9088 15.2799 18.8093C15.0887 18.7099 14.8761 18.6582 14.6605 18.6589H5.3311Z" stroke="var(--stroke-0, white)" stroke-width="2.66556" stroke-linecap="round" stroke-linejoin="round"/>
</g>
</svg>
